<svg xmlns="http://www.w3.org/2000/svg" viewBox="0 0 120.34 80"><defs><style>.cls-1{fill:#e64e4e;}.cls-2{fill:#fff;}.cls-3{fill:#add8e6;}</style></defs><g id="Layer_2" data-name="Layer 2"><g id="Layer_1-2" data-name="Layer 1"><polygon class="cls-1" points="52.2 68.42 80.01 68.42 80.01 80 0.01 80 0.01 11.88 28.28 68.42 40.53 43.91 52.06 20.86 52.06 68.28 52.2 68.42"/><rect class="cls-1" x="0.01" width="80" height="11.86"/><polygon class="cls-2" points="0.01 11.86 0.01 11.88 0 11.86 0.01 11.86"/><path class="cls-3" d="M108.48,68.42A39.83,39.83,0,0,1,80.34,80H80A39.83,39.83,0,0,1,52.2,68.42Z"/><path class="cls-3" d="M120.34,40a39.86,39.86,0,0,1-11.79,28.35L80,40.14l28.6-28.28H52.06V68.28A39.86,39.86,0,0,1,40.53,43.91,38.93,38.93,0,0,1,40.34,40,40,40,0,0,1,80,0h.33A40,40,0,0,1,120.34,40Z"/><polygon class="cls-2" points="52.2 68.42 52.06 68.42 52.06 68.28 52.2 68.42"/><path class="cls-2" d="M108.62,68.42h-.14l.07-.07Z"/></g></g></svg>